<svg width="164" height="34" viewBox="0 0 164 34" fill="none" xmlns="http://www.w3.org/2000/svg">
<path d="M44.345 16.0888C45.7934 15.7216 46.7318 14.8036 46.7318 13.1716C46.7318 10.8664 45.161 9.51999 41.2238 9.51999H36.2666V23.8H42.0194C45.875 23.8 47.507 22.066 47.507 19.6996C47.507 17.782 46.4666 16.4968 44.345 16.0888ZM41.4482 11.7436C43.0802 11.7436 43.9574 12.1924 43.9574 13.4776C43.9574 14.7832 43.019 15.2932 41.795 15.2932H38.9594V11.7436H41.4482ZM42.1418 21.5764H38.9594V17.3128H42.101C43.3046 17.3128 44.6714 17.68 44.6714 19.516C44.6714 20.9236 43.6106 21.5764 42.1418 21.5764Z" fill="#0E153A"/>
<path d="M53.6441 12.7432C50.2781 12.7432 48.4421 15.1096 48.4421 18.394C48.4421 21.6376 50.4209 24.0856 53.8073 24.0856C56.0513 24.0856 57.6425 23.1676 58.6217 21.5764L56.5001 20.4952C56.0309 21.3724 55.1945 22.0048 53.9297 22.0048C52.2161 22.0048 51.1961 20.9848 51.1145 19.006H58.7033V18.4756C58.7033 15.1504 56.8673 12.7432 53.6441 12.7432ZM53.6237 14.7424C55.0313 14.7424 55.9085 15.5584 56.0309 17.2312H51.1349C51.2777 15.5992 52.1957 14.7424 53.6237 14.7424Z" fill="#0E153A"/>
<path d="M63.4477 10.336L60.8365 11.3333V13.1512H59.3677V15.0688H60.8365V21.0052C60.8365 22.8616 61.6729 24.0856 64.1005 24.0856C64.9777 24.0856 65.7325 23.9428 66.3445 23.7388V21.6988C65.8753 21.8212 65.3245 21.9436 64.7329 21.9436C63.7537 21.9436 63.4477 21.5152 63.4477 20.6176V15.0688H66.1201V13.1512H63.4477V10.336Z" fill="#0E153A"/>
<path d="M70.759 10.336L68.1478 11.3333V13.1512H66.679V15.0688H68.1478V21.0052C68.1478 22.8616 68.9842 24.0856 71.4118 24.0856C72.289 24.0856 73.0438 23.9428 73.6558 23.7388V21.6988C73.1866 21.8212 72.6358 21.9436 72.0442 21.9436C71.065 21.9436 70.759 21.5152 70.759 20.6176V15.0688H73.4314V13.1512H70.759V10.336Z" fill="#0E153A"/>
<path d="M79.4827 12.7432C76.1167 12.7432 74.2807 15.1096 74.2807 18.394C74.2807 21.6376 76.2595 24.0856 79.6459 24.0856C81.8899 24.0856 83.4811 23.1676 84.4603 21.5764L82.3387 20.4952C81.8695 21.3724 81.0331 22.0048 79.7683 22.0048C78.0547 22.0048 77.0347 20.9848 76.9531 19.006H84.5419V18.4756C84.5419 15.1504 82.7059 12.7432 79.4827 12.7432ZM79.4623 14.7424C80.8699 14.7424 81.7471 15.5584 81.8695 17.2312H76.9735C77.1163 15.5992 78.0343 14.7424 79.4623 14.7424Z" fill="#0E153A"/>
<path d="M91.7956 12.7432C90.6328 12.7432 89.572 13.396 88.8376 14.8036V13.0492H86.2672V23.8H88.8784V19.1284C88.8784 16.1704 90.184 15.3748 91.8772 15.3748C92.02 15.3748 92.1832 15.3748 92.53 15.3952V12.8044C92.3056 12.7636 92.0404 12.7432 91.7956 12.7432Z" fill="#0E153A"/>
<path d="M109.564 9.51999H106.85V18.6184C106.85 20.8216 105.871 21.8824 103.892 21.8824C101.893 21.8824 100.914 20.9032 100.914 18.6184V9.51999H98.2212V18.6796C98.2212 21.454 99.5676 24.1876 103.872 24.1876C108.074 24.1876 109.564 21.4948 109.564 18.6796V9.51999Z" fill="#0E153A"/>
<path d="M117.617 12.7432C116.475 12.7432 115.332 13.1512 114.516 14.1916V13.0492H111.966V27.166H114.578V22.7188C115.23 23.596 116.291 24.0856 117.576 24.0856C120.514 24.0856 122.35 21.6376 122.35 18.3736C122.35 15.0688 120.453 12.7432 117.617 12.7432ZM117.026 14.8852C118.698 14.8852 119.637 16.1908 119.637 18.3736C119.637 20.6992 118.556 21.964 117.005 21.964C115.557 21.964 114.435 20.8624 114.435 18.394C114.435 16.048 115.536 14.8852 117.026 14.8852Z" fill="#0E153A"/>
<path d="M127.138 10.336L124.527 11.3333V13.1512H123.058V15.0688H124.527V21.0052C124.527 22.8616 125.363 24.0856 127.791 24.0856C128.668 24.0856 129.423 23.9428 130.035 23.7388V21.6988C129.566 21.8212 129.015 21.9436 128.423 21.9436C127.444 21.9436 127.138 21.5152 127.138 20.6176V15.0688H129.81V13.1512H127.138V10.336Z" fill="#0E153A"/>
<path d="M132.736 8.21439C131.879 8.21439 131.144 8.90799 131.144 9.76479C131.144 10.6216 131.879 11.3152 132.736 11.3152C133.592 11.3152 134.327 10.6216 134.327 9.76479C134.327 8.90799 133.592 8.21439 132.736 8.21439ZM134.041 13.0492H131.43V23.8H134.041V13.0492Z" fill="#0E153A"/>
<path d="M148.364 12.7432C147.059 12.7432 145.774 13.2532 144.958 14.518C144.448 13.396 143.448 12.7432 141.959 12.7432C140.755 12.7432 139.776 13.2124 139.001 14.2732V13.0492H136.43V23.8H139.042V17.7412C139.042 16.0888 139.96 14.9668 141.204 14.9668C142.612 14.9668 142.836 15.946 142.836 17.9656V23.8H145.447V17.7412C145.447 16.0888 146.345 14.9668 147.589 14.9668C148.976 14.9668 149.242 15.946 149.242 17.9656V23.8H151.853V16.8844C151.853 14.2732 150.69 12.7432 148.364 12.7432Z" fill="#0E153A"/>
<path d="M158.752 12.7432C155.386 12.7432 153.55 15.1096 153.55 18.394C153.55 21.6376 155.529 24.0856 158.915 24.0856C161.159 24.0856 162.75 23.1676 163.729 21.5764L161.608 20.4952C161.139 21.3724 160.302 22.0048 159.037 22.0048C157.324 22.0048 156.304 20.9848 156.222 19.006H163.811V18.4756C163.811 15.1504 161.975 12.7432 158.752 12.7432ZM158.731 14.7424C160.139 14.7424 161.016 15.5584 161.139 17.2312H156.243C156.385 15.5992 157.303 14.7424 158.731 14.7424Z" fill="#0E153A"/>
<path d="M14.7333 17V3.19212C14.7333 2.1251 13.3933 1.64932 12.7204 2.47745L1.5015 16.2853C0.899727 17.026 1.42679 18.1333 2.3811 18.1333H13.6C14.2259 18.1333 14.7333 17.6259 14.7333 17Z" fill="url(#paint0_linear)"/>
<path d="M24.8188 15.8667H13.5999C12.974 15.8667 12.4666 16.3741 12.4666 17V30.8079C12.4666 31.8749 13.8066 32.3507 14.4795 31.5225L25.6984 17.7147C26.3002 16.974 25.7731 15.8667 24.8188 15.8667Z" fill="#0E153A"/>
<defs>
<linearGradient id="paint0_linear" x1="6.8" y1="3.96667" x2="16.4333" y2="22.1" gradientUnits="userSpaceOnUse">
<stop stop-color="#BCBECD"/>
<stop offset="1" stop-color="#BCBECD" stop-opacity="0"/>
</linearGradient>
</defs>
</svg>
